<mxfile host="app.diagrams.net" agent="Mozilla/5.0 (Windows NT 10.0; Win64; x64) AppleWebKit/537.36 (KHTML, like Gecko) Chrome/135.0.0.0 Safari/537.36" version="26.2.12">
  <diagram id="bookstoreERRel" name="BookStore ER Diagram with Relationships">
    <mxGraphModel dx="1555" dy="623" grid="1" gridSize="10" guides="1" tooltips="1" connect="1" arrows="1" fold="1" page="1" pageScale="1" pageWidth="1169" pageHeight="827" math="0" shadow="0">
      <root>
        <mxCell id="0" />
        <mxCell id="1" parent="0" />
        <mxCell id="2" value="book&#xa;PK: book_id&#xa;title&#xa;publication_date&#xa;isbn&#xa;price&#xa;FK: publisher_id, language_id" parent="1" vertex="1">
          <mxGeometry x="580" y="120" width="180" height="110" as="geometry" />
        </mxCell>
        <mxCell id="3" value="publisher&#xa;PK: publisher_id&#xa;name&#xa;address&#xa;phone" parent="1" vertex="1">
          <mxGeometry x="830" y="270" width="180" height="80" as="geometry" />
        </mxCell>
        <mxCell id="4" value="book_language&#xa;PK: language_id&#xa;language_name" parent="1" vertex="1">
          <mxGeometry x="580" y="10" width="180" height="60" as="geometry" />
        </mxCell>
        <mxCell id="5" value="author&#xa;PK: author_id&#xa;first_name, last_name&#xa;bio" parent="1" vertex="1">
          <mxGeometry x="980" y="130" width="180" height="80" as="geometry" />
        </mxCell>
        <mxCell id="6" value="book_author&#xa;PK: (book_id, author_id)&#xa;FK: book_id, author_id" parent="1" vertex="1">
          <mxGeometry x="780" y="140" width="180" height="60" as="geometry" />
        </mxCell>
        <mxCell id="7" value="customer&#xa;PK: customer_id&#xa;first_name, last_name&#xa;email&#xa;phone" parent="1" vertex="1">
          <mxGeometry x="260" y="340" width="180" height="80" as="geometry" />
        </mxCell>
        <mxCell id="8" value="address&#xa;PK: address_id&#xa;street, city, state, postal_code&#xa;FK: country_id" parent="1" vertex="1">
          <mxGeometry x="260" y="550" width="180" height="80" as="geometry" />
        </mxCell>
        <mxCell id="9" value="customer_address&#xa;PK: customer_address_id&#xa;FK: customer_id, address_id, status_id" parent="1" vertex="1">
          <mxGeometry x="245" y="440" width="210" height="80" as="geometry" />
        </mxCell>
        <mxCell id="10" value="address_status&#xa;PK: status_id&#xa;status_name" parent="1" vertex="1">
          <mxGeometry x="585" y="500" width="180" height="60" as="geometry" />
        </mxCell>
        <mxCell id="11" value="country&#xa;PK: country_id&#xa;country_name" parent="1" vertex="1">
          <mxGeometry x="260" y="700" width="180" height="60" as="geometry" />
        </mxCell>
        <mxCell id="12" value="cust_order&#xa;PK: order_id&#xa;order_date, total&#xa;FK: customer_id, shipping_method_id, order_status_id" parent="1" vertex="1">
          <mxGeometry x="260" y="160" width="300" height="140" as="geometry" />
        </mxCell>
        <mxCell id="13" value="shipping_method&#xa;PK: shipping_method_id&#xa;method_name, cost" parent="1" vertex="1">
          <mxGeometry x="10" y="190" width="180" height="60" as="geometry" />
        </mxCell>
        <mxCell id="14" value="order_status&#xa;PK: order_status_id&#xa;status_name" parent="1" vertex="1">
          <mxGeometry x="150" y="30" width="180" height="60" as="geometry" />
        </mxCell>
        <mxCell id="16" value="order_history&#xa;PK: history_id&#xa;change_date, note&#xa;FK: order_id, status_id" parent="1" vertex="1">
          <mxGeometry x="370" y="10" width="180" height="100" as="geometry" />
        </mxCell>
        <mxCell id="e1" parent="1" source="2" target="3" edge="1">
          <mxGeometry relative="1" as="geometry" />
        </mxCell>
        <mxCell id="e2" parent="1" source="2" target="4" edge="1">
          <mxGeometry relative="1" as="geometry" />
        </mxCell>
        <mxCell id="e3" parent="1" source="6" target="2" edge="1">
          <mxGeometry relative="1" as="geometry" />
        </mxCell>
        <mxCell id="e4" parent="1" source="6" target="5" edge="1">
          <mxGeometry relative="1" as="geometry" />
        </mxCell>
        <mxCell id="e5" parent="1" source="9" target="7" edge="1">
          <mxGeometry relative="1" as="geometry" />
        </mxCell>
        <mxCell id="e6" parent="1" source="9" target="8" edge="1">
          <mxGeometry relative="1" as="geometry" />
        </mxCell>
        <mxCell id="e7" parent="1" source="15" target="10" edge="1">
          <mxGeometry relative="1" as="geometry" />
        </mxCell>
        <mxCell id="e8" parent="1" source="8" target="11" edge="1">
          <mxGeometry relative="1" as="geometry" />
        </mxCell>
        <mxCell id="e9" style="exitX=0.25;exitY=1;exitDx=0;exitDy=0;entryX=0.415;entryY=0;entryDx=0;entryDy=0;entryPerimeter=0;" parent="1" source="12" target="7" edge="1">
          <mxGeometry relative="1" as="geometry" />
        </mxCell>
        <mxCell id="e10" parent="1" source="12" target="13" edge="1">
          <mxGeometry relative="1" as="geometry" />
        </mxCell>
        <mxCell id="e11" style="exitX=0.086;exitY=0.003;exitDx=0;exitDy=0;exitPerimeter=0;entryX=0.75;entryY=1;entryDx=0;entryDy=0;" parent="1" source="12" target="14" edge="1">
          <mxGeometry relative="1" as="geometry" />
        </mxCell>
        <mxCell id="e12" parent="1" source="15" target="12" edge="1">
          <mxGeometry relative="1" as="geometry" />
        </mxCell>
        <mxCell id="e13" parent="1" source="15" target="2" edge="1">
          <mxGeometry relative="1" as="geometry" />
        </mxCell>
        <mxCell id="e14" style="entryX=0.82;entryY=0;entryDx=0;entryDy=0;entryPerimeter=0;exitX=0.75;exitY=1;exitDx=0;exitDy=0;" parent="1" source="16" target="12" edge="1">
          <mxGeometry relative="1" as="geometry">
            <mxPoint x="505" y="110" as="sourcePoint" />
            <mxPoint x="490" y="160" as="targetPoint" />
          </mxGeometry>
        </mxCell>
        <mxCell id="e15" parent="1" source="16" target="14" edge="1">
          <mxGeometry relative="1" as="geometry" />
        </mxCell>
        <mxCell id="CBhsbEeXSreOkTEA-Rib-16" value="" edge="1" parent="1" source="9" target="15">
          <mxGeometry relative="1" as="geometry">
            <mxPoint x="500" y="481" as="sourcePoint" />
            <mxPoint x="960" y="589" as="targetPoint" />
          </mxGeometry>
        </mxCell>
        <mxCell id="15" value="order_line&#xa;PK: order_line_id&#xa;quantity, price&#xa;FK: order_id, book_id" parent="1" vertex="1">
          <mxGeometry x="585" y="330" width="180" height="100" as="geometry" />
        </mxCell>
      </root>
    </mxGraphModel>
  </diagram>
</mxfile>
